<svg class="main-svg" xmlns="http://www.w3.org/2000/svg" xmlns:xlink="http://www.w3.org/1999/xlink" width="2400" height="1600" style="" viewBox="0 0 1200 800"><rect x="0" y="0" width="1200" height="800" style="fill: rgb(243, 243, 238); fill-opacity: 1;"/><defs id="defs-c57e98"><g class="clips"><clipPath id="clipc57e98xyplot" class="plotclip"><rect width="994" height="540"/></clipPath><clipPath class="axesclip" id="clipc57e98x"><rect x="126" y="0" width="994" height="800"/></clipPath><clipPath class="axesclip" id="clipc57e98y"><rect x="0" y="148" width="1200" height="540"/></clipPath><clipPath class="axesclip" id="clipc57e98xy"><rect x="126" y="148" width="994" height="540"/></clipPath></g><g class="gradients"/><g class="patterns"/></defs><g class="bglayer"/><g class="layer-below"><g class="imagelayer"/><g class="shapelayer"/></g><g class="cartesianlayer"><g class="subplot xy"><g class="layer-subplot"><g class="shapelayer"/><g class="imagelayer"/></g><g class="minor-gridlayer"><g class="x"/><g class="y"/></g><g class="gridlayer"><g class="x"><path class="xgrid crisp" transform="translate(215.7,0)" d="M0,148v540" style="stroke: rgb(94, 82, 64); stroke-opacity: 0.2; stroke-width: 1px;"/><path class="xgrid crisp" transform="translate(352.3,0)" d="M0,148v540" style="stroke: rgb(94, 82, 64); stroke-opacity: 0.2; stroke-width: 1px;"/><path class="xgrid crisp" transform="translate(488.9,0)" d="M0,148v540" style="stroke: rgb(94, 82, 64); stroke-opacity: 0.2; stroke-width: 1px;"/><path class="xgrid crisp" transform="translate(625.5,0)" d="M0,148v540" style="stroke: rgb(94, 82, 64); stroke-opacity: 0.2; stroke-width: 1px;"/><path class="xgrid crisp" transform="translate(762.1,0)" d="M0,148v540" style="stroke: rgb(94, 82, 64); stroke-opacity: 0.2; stroke-width: 1px;"/><path class="xgrid crisp" transform="translate(898.7,0)" d="M0,148v540" style="stroke: rgb(94, 82, 64); stroke-opacity: 0.2; stroke-width: 1px;"/><path class="xgrid crisp" transform="translate(1035.3,0)" d="M0,148v540" style="stroke: rgb(94, 82, 64); stroke-opacity: 0.2; stroke-width: 1px;"/></g><g class="y"><path class="ygrid crisp" transform="translate(0,557.0899999999999)" d="M126,0h994" style="stroke: rgb(128, 128, 128); stroke-opacity: 0.2; stroke-width: 1px;"/><path class="ygrid crisp" transform="translate(0,426.18)" d="M126,0h994" style="stroke: rgb(128, 128, 128); stroke-opacity: 0.2; stroke-width: 1px;"/><path class="ygrid crisp" transform="translate(0,295.27)" d="M126,0h994" style="stroke: rgb(128, 128, 128); stroke-opacity: 0.2; stroke-width: 1px;"/><path class="ygrid crisp" transform="translate(0,164.36)" d="M126,0h994" style="stroke: rgb(128, 128, 128); stroke-opacity: 0.2; stroke-width: 1px;"/></g></g><g class="zerolinelayer"><path class="yzl zl crisp" transform="translate(0,688)" d="M126,0h994" style="stroke: rgb(68, 68, 68); stroke-opacity: 1; stroke-width: 1px;"/></g><g class="layer-between"><g class="shapelayer"/><g class="imagelayer"/></g><path class="xlines-below"/><path class="ylines-below"/><g class="overlines-below"/><g class="xaxislayer-below"/><g class="yaxislayer-below"/><g class="overaxes-below"/><g class="overplot"><g class="xy" transform="translate(126,148)"><g class="barlayer mlayer"><g class="trace bars" style="opacity: 1;"><g class="points"><g class="point"><path d="M35.06,540V78.82H144.34V540Z" clip-path="url(#clipc57e98xyplot)" style="vector-effect: none; opacity: 1; stroke-width: 1px; fill: rgb(31, 184, 205); fill-opacity: 1; stroke: rgb(94, 82, 64); stroke-opacity: 0.2;"/><text class="bartext bartext-outside" text-anchor="middle" data-notex="1" x="0" y="0" style="font-family: 'FK Grotesk Neue'; font-size: 11px; fill: rgb(255, 255, 255); fill-opacity: 1; white-space: pre;" transform="translate(89.7,71.82)">$176k</text></g><g class="point"><path d="M171.66,540V217.02H280.94V540Z" clip-path="url(#clipc57e98xyplot)" style="vector-effect: none; opacity: 1; stroke-width: 1px; fill: rgb(31, 184, 205); fill-opacity: 1; stroke: rgb(94, 82, 64); stroke-opacity: 0.2;"/><text class="bartext bartext-outside" text-anchor="middle" data-notex="1" x="0" y="0" style="font-family: 'FK Grotesk Neue'; font-size: 11px; fill: rgb(255, 255, 255); fill-opacity: 1; white-space: pre;" transform="translate(226.3,210.02)">$123k</text></g><g class="point"><path d="M308.26,540V244.87H417.54V540Z" clip-path="url(#clipc57e98xyplot)" style="vector-effect: none; opacity: 1; stroke-width: 1px; fill: rgb(31, 184, 205); fill-opacity: 1; stroke: rgb(94, 82, 64); stroke-opacity: 0.2;"/><text class="bartext bartext-outside" text-anchor="middle" data-notex="1" x="0" y="0" style="font-family: 'FK Grotesk Neue'; font-size: 11px; fill: rgb(255, 255, 255); fill-opacity: 1; white-space: pre;" transform="translate(362.9,237.87)">$113k</text></g><g class="point"><path d="M444.86,540V339.64H554.14V540Z" clip-path="url(#clipc57e98xyplot)" style="vector-effect: none; opacity: 1; stroke-width: 1px; fill: rgb(31, 184, 205); fill-opacity: 1; stroke: rgb(94, 82, 64); stroke-opacity: 0.2;"/><text class="bartext bartext-outside" text-anchor="middle" data-notex="1" x="0" y="0" style="font-family: 'FK Grotesk Neue'; font-size: 11px; fill: rgb(255, 255, 255); fill-opacity: 1; white-space: pre;" transform="translate(499.5,332.64)">$77k</text></g><g class="point"><path d="M581.46,540V423.61H690.74V540Z" clip-path="url(#clipc57e98xyplot)" style="vector-effect: none; opacity: 1; stroke-width: 1px; fill: rgb(31, 184, 205); fill-opacity: 1; stroke: rgb(94, 82, 64); stroke-opacity: 0.2;"/><text class="bartext bartext-outside" text-anchor="middle" data-notex="1" x="0" y="0" style="font-family: 'FK Grotesk Neue'; font-size: 11px; fill: rgb(255, 255, 255); fill-opacity: 1; white-space: pre;" transform="translate(636.1,416.61)">$44k</text></g><g class="point"><path d="M718.06,540V437.45H827.34V540Z" clip-path="url(#clipc57e98xyplot)" style="vector-effect: none; opacity: 1; stroke-width: 1px; fill: rgb(31, 184, 205); fill-opacity: 1; stroke: rgb(94, 82, 64); stroke-opacity: 0.2;"/><text class="bartext bartext-outside" text-anchor="middle" data-notex="1" x="0" y="0" style="font-family: 'FK Grotesk Neue'; font-size: 11px; fill: rgb(255, 255, 255); fill-opacity: 1; white-space: pre;" transform="translate(772.7,430.45)">$39k</text></g><g class="point"><path d="M854.66,540V447.48H963.94V540Z" clip-path="url(#clipc57e98xyplot)" style="vector-effect: none; opacity: 1; stroke-width: 1px; fill: rgb(31, 184, 205); fill-opacity: 1; stroke: rgb(94, 82, 64); stroke-opacity: 0.2;"/><text class="bartext bartext-outside" text-anchor="middle" data-notex="1" x="0" y="0" style="font-family: 'FK Grotesk Neue'; font-size: 11px; fill: rgb(255, 255, 255); fill-opacity: 1; white-space: pre;" transform="translate(909.3,440.48)">$35k</text></g></g></g></g><g class="scatterlayer mlayer"><g class="trace scatter trace42a677" style="stroke-miterlimit: 2; opacity: 1;"><g class="fills" clip-path="url(#clipc57e98xyplot)"/><g class="errorbars"/><g class="lines"/><g class="points"><path class="point plotly-customdata" transform="translate(89.7,67)" d="M32,0A32,32 0 1,1 0,-32A32,32 0 0,1 32,0Z" style="opacity: 0.8; stroke-width: 2px; fill: rgb(219, 69, 69); fill-opacity: 1; stroke: rgb(255, 255, 255); stroke-opacity: 1;"/><path class="point plotly-customdata" transform="translate(226.3,265.72)" d="M25,0A25,25 0 1,1 0,-25A25,25 0 0,1 25,0Z" style="opacity: 0.8; stroke-width: 2px; fill: rgb(219, 69, 69); fill-opacity: 1; stroke: rgb(255, 255, 255); stroke-opacity: 1;"/><path class="point plotly-customdata" transform="translate(362.9,246.45)" d="M31.5,0A31.5,31.5 0 1,1 0,-31.5A31.5,31.5 0 0,1 31.5,0Z" style="opacity: 0.8; stroke-width: 2px; fill: rgb(219, 69, 69); fill-opacity: 1; stroke: rgb(255, 255, 255); stroke-opacity: 1;"/><path class="point plotly-customdata" transform="translate(499.5,171.94)" d="M25,0A25,25 0 1,1 0,-25A25,25 0 0,1 25,0Z" style="opacity: 0.8; stroke-width: 2px; fill: rgb(219, 69, 69); fill-opacity: 1; stroke: rgb(255, 255, 255); stroke-opacity: 1;"/><path class="point plotly-customdata" transform="translate(636.1,273)" d="M28,0A28,28 0 1,1 0,-28A28,28 0 0,1 28,0Z" style="opacity: 0.8; stroke-width: 2px; fill: rgb(219, 69, 69); fill-opacity: 1; stroke: rgb(255, 255, 255); stroke-opacity: 1;"/><path class="point plotly-customdata" transform="translate(772.7,304.78)" d="M27.5,0A27.5,27.5 0 1,1 0,-27.5A27.5,27.5 0 0,1 27.5,0Z" style="opacity: 0.8; stroke-width: 2px; fill: rgb(219, 69, 69); fill-opacity: 1; stroke: rgb(255, 255, 255); stroke-opacity: 1;"/><path class="point plotly-customdata" transform="translate(909.3,327.72)" d="M28,0A28,28 0 1,1 0,-28A28,28 0 0,1 28,0Z" style="opacity: 0.8; stroke-width: 2px; fill: rgb(219, 69, 69); fill-opacity: 1; stroke: rgb(255, 255, 255); stroke-opacity: 1;"/></g><g class="text"><g class="textpoint" transform="translate(0,-43.5)"><text x="89.7" y="67" text-anchor="middle" style="font-family: 'FK Grotesk Neue'; font-size: 10px; fill: rgb(219, 69, 69); fill-opacity: 1; white-space: pre;">903t CO2</text></g><g class="textpoint" transform="translate(0,-34.75)"><text x="226.3" y="265.72" text-anchor="middle" style="font-family: 'FK Grotesk Neue'; font-size: 10px; fill: rgb(219, 69, 69); fill-opacity: 1; white-space: pre;">524t CO2</text></g><g class="textpoint" transform="translate(0,-42.875)"><text x="362.9" y="246.45" text-anchor="middle" style="font-family: 'FK Grotesk Neue'; font-size: 10px; fill: rgb(219, 69, 69); fill-opacity: 1; white-space: pre;">561t CO2</text></g><g class="textpoint" transform="translate(0,-34.75)"><text x="499.5" y="171.94" text-anchor="middle" style="font-family: 'FK Grotesk Neue'; font-size: 10px; fill: rgb(219, 69, 69); fill-opacity: 1; white-space: pre;">703t CO2</text></g><g class="textpoint" transform="translate(0,-38.5)"><text x="636.1" y="273" text-anchor="middle" style="font-family: 'FK Grotesk Neue'; font-size: 10px; fill: rgb(219, 69, 69); fill-opacity: 1; white-space: pre;">510t CO2</text></g><g class="textpoint" transform="translate(0,-37.875)"><text x="772.7" y="304.78" text-anchor="middle" style="font-family: 'FK Grotesk Neue'; font-size: 10px; fill: rgb(219, 69, 69); fill-opacity: 1; white-space: pre;">449t CO2</text></g><g class="textpoint" transform="translate(0,-38.5)"><text x="909.3" y="327.72" text-anchor="middle" style="font-family: 'FK Grotesk Neue'; font-size: 10px; fill: rgb(219, 69, 69); fill-opacity: 1; white-space: pre;">405t CO2</text></g></g></g><g class="trace scatter trace74a409" style="stroke-miterlimit: 2; opacity: 1;"><g class="fills" clip-path="url(#clipc57e98xyplot)"/><g class="errorbars"/><g class="lines"><path class="js-line" d="M89.7,317.45L226.3,409.09L362.9,396L499.5,317.45L636.1,291.27L772.7,304.36L909.3,291.27" clip-path="url(#clipc57e98xyplot)" style="vector-effect: none; fill: none; stroke: rgb(46, 139, 87); stroke-opacity: 1; stroke-width: 3px; opacity: 1;"/></g><g class="points"><path class="point plotly-customdata" transform="translate(89.7,317.45)" d="M4,0A4,4 0 1,1 0,-4A4,4 0 0,1 4,0Z" style="opacity: 1; stroke-width: 0px; fill: rgb(46, 139, 87); fill-opacity: 1;"/><path class="point plotly-customdata" transform="translate(226.3,409.09)" d="M4,0A4,4 0 1,1 0,-4A4,4 0 0,1 4,0Z" style="opacity: 1; stroke-width: 0px; fill: rgb(46, 139, 87); fill-opacity: 1;"/><path class="point plotly-customdata" transform="translate(362.9,396)" d="M4,0A4,4 0 1,1 0,-4A4,4 0 0,1 4,0Z" style="opacity: 1; stroke-width: 0px; fill: rgb(46, 139, 87); fill-opacity: 1;"/><path class="point plotly-customdata" transform="translate(499.5,317.45)" d="M4,0A4,4 0 1,1 0,-4A4,4 0 0,1 4,0Z" style="opacity: 1; stroke-width: 0px; fill: rgb(46, 139, 87); fill-opacity: 1;"/><path class="point plotly-customdata" transform="translate(636.1,291.27)" d="M4,0A4,4 0 1,1 0,-4A4,4 0 0,1 4,0Z" style="opacity: 1; stroke-width: 0px; fill: rgb(46, 139, 87); fill-opacity: 1;"/><path class="point plotly-customdata" transform="translate(772.7,304.36)" d="M4,0A4,4 0 1,1 0,-4A4,4 0 0,1 4,0Z" style="opacity: 1; stroke-width: 0px; fill: rgb(46, 139, 87); fill-opacity: 1;"/><path class="point plotly-customdata" transform="translate(909.3,291.27)" d="M4,0A4,4 0 1,1 0,-4A4,4 0 0,1 4,0Z" style="opacity: 1; stroke-width: 0px; fill: rgb(46, 139, 87); fill-opacity: 1;"/></g><g class="text"><g class="textpoint" transform="translate(0,13.5)"><text x="89.7" y="317.45" text-anchor="middle" style="font-family: 'FK Grotesk Neue'; font-size: 10px; fill: rgb(46, 139, 87); fill-opacity: 1; white-space: pre;">1.7yr</text></g><g class="textpoint" transform="translate(0,13.5)"><text x="226.3" y="409.09" text-anchor="middle" style="font-family: 'FK Grotesk Neue'; font-size: 10px; fill: rgb(46, 139, 87); fill-opacity: 1; white-space: pre;">1.0yr</text></g><g class="textpoint" transform="translate(0,13.5)"><text x="362.9" y="396" text-anchor="middle" style="font-family: 'FK Grotesk Neue'; font-size: 10px; fill: rgb(46, 139, 87); fill-opacity: 1; white-space: pre;">1.1yr</text></g><g class="textpoint" transform="translate(0,13.5)"><text x="499.5" y="317.45" text-anchor="middle" style="font-family: 'FK Grotesk Neue'; font-size: 10px; fill: rgb(46, 139, 87); fill-opacity: 1; white-space: pre;">1.7yr</text></g><g class="textpoint" transform="translate(0,13.5)"><text x="636.1" y="291.27" text-anchor="middle" style="font-family: 'FK Grotesk Neue'; font-size: 10px; fill: rgb(46, 139, 87); fill-opacity: 1; white-space: pre;">1.9yr</text></g><g class="textpoint" transform="translate(0,13.5)"><text x="772.7" y="304.36" text-anchor="middle" style="font-family: 'FK Grotesk Neue'; font-size: 10px; fill: rgb(46, 139, 87); fill-opacity: 1; white-space: pre;">1.8yr</text></g><g class="textpoint" transform="translate(0,13.5)"><text x="909.3" y="291.27" text-anchor="middle" style="font-family: 'FK Grotesk Neue'; font-size: 10px; fill: rgb(46, 139, 87); fill-opacity: 1; white-space: pre;">1.9yr</text></g></g></g></g></g></g><path class="xlines-above crisp" d="" style="fill: none; stroke-width: 1px; stroke: rgb(0, 0, 0); stroke-opacity: 0;"/><path class="ylines-above crisp" d="" style="fill: none; stroke-width: 1px; stroke: rgb(0, 0, 0); stroke-opacity: 0;"/><g class="overlines-above"/><g class="xaxislayer-above"><path class="xtick ticks crisp" d="M0,689v5" transform="translate(215.7,0)" style="stroke: rgb(94, 82, 64); stroke-opacity: 0.2; stroke-width: 1px;"/><path class="xtick ticks crisp" d="M0,689v5" transform="translate(352.3,0)" style="stroke: rgb(94, 82, 64); stroke-opacity: 0.2; stroke-width: 1px;"/><path class="xtick ticks crisp" d="M0,689v5" transform="translate(488.9,0)" style="stroke: rgb(94, 82, 64); stroke-opacity: 0.2; stroke-width: 1px;"/><path class="xtick ticks crisp" d="M0,689v5" transform="translate(625.5,0)" style="stroke: rgb(94, 82, 64); stroke-opacity: 0.2; stroke-width: 1px;"/><path class="xtick ticks crisp" d="M0,689v5" transform="translate(762.1,0)" style="stroke: rgb(94, 82, 64); stroke-opacity: 0.2; stroke-width: 1px;"/><path class="xtick ticks crisp" d="M0,689v5" transform="translate(898.7,0)" style="stroke: rgb(94, 82, 64); stroke-opacity: 0.2; stroke-width: 1px;"/><path class="xtick ticks crisp" d="M0,689v5" transform="translate(1035.3,0)" style="stroke: rgb(94, 82, 64); stroke-opacity: 0.2; stroke-width: 1px;"/><g class="xtick"><text text-anchor="start" x="0" y="706" transform="translate(215.7,0) rotate(45,0,701)" style="font-family: 'FK Grotesk Neue'; font-size: 10px; fill: rgb(98, 108, 113); fill-opacity: 1; white-space: pre; opacity: 1;">Jumeirah Al Qasr</text></g><g class="xtick"><text text-anchor="start" x="0" y="706" transform="translate(352.3,0) rotate(45,0,701)" style="font-family: 'FK Grotesk Neue'; font-size: 10px; fill: rgb(98, 108, 113); fill-opacity: 1; white-space: pre; opacity: 1;">Four Seasons JBR</text></g><g class="xtick"><text text-anchor="start" x="0" y="706" transform="translate(488.9,0) rotate(45,0,701)" style="font-family: 'FK Grotesk Neue'; font-size: 10px; fill: rgb(98, 108, 113); fill-opacity: 1; white-space: pre; opacity: 1;">Fairmont Palm</text></g><g class="xtick"><text text-anchor="start" x="0" y="706" transform="translate(625.5,0) rotate(45,0,701)" style="font-family: 'FK Grotesk Neue'; font-size: 10px; fill: rgb(98, 108, 113); fill-opacity: 1; white-space: pre; opacity: 1;">W Hotel Abu Dhabi</text></g><g class="xtick"><text text-anchor="start" x="0" y="706" transform="translate(762.1,0) rotate(45,0,701)" style="font-family: 'FK Grotesk Neue'; font-size: 10px; fill: rgb(98, 108, 113); fill-opacity: 1; white-space: pre; opacity: 1;">Crown Plaza Yas</text></g><g class="xtick"><text text-anchor="start" x="0" y="706" transform="translate(898.7,0) rotate(45,0,701)" style="font-family: 'FK Grotesk Neue'; font-size: 10px; fill: rgb(98, 108, 113); fill-opacity: 1; white-space: pre; opacity: 1;">Radisson Blu Yas</text></g><g class="xtick"><text text-anchor="start" x="0" y="706" transform="translate(1035.3,0) rotate(45,0,701)" style="font-family: 'FK Grotesk Neue'; font-size: 10px; fill: rgb(98, 108, 113); fill-opacity: 1; white-space: pre; opacity: 1;">Anantara Mangrvs</text></g></g><g class="yaxislayer-above"><path class="ytick ticks crisp" d="M125,0h-5" transform="translate(0,688)" style="stroke: rgb(94, 82, 64); stroke-opacity: 0.2; stroke-width: 1px;"/><path class="ytick ticks crisp" d="M125,0h-5" transform="translate(0,557.0899999999999)" style="stroke: rgb(94, 82, 64); stroke-opacity: 0.2; stroke-width: 1px;"/><path class="ytick ticks crisp" d="M125,0h-5" transform="translate(0,426.18)" style="stroke: rgb(94, 82, 64); stroke-opacity: 0.2; stroke-width: 1px;"/><path class="ytick ticks crisp" d="M125,0h-5" transform="translate(0,295.27)" style="stroke: rgb(94, 82, 64); stroke-opacity: 0.2; stroke-width: 1px;"/><path class="ytick ticks crisp" d="M125,0h-5" transform="translate(0,164.36)" style="stroke: rgb(94, 82, 64); stroke-opacity: 0.2; stroke-width: 1px;"/><g class="ytick"><text text-anchor="end" x="116.8" y="5.6" transform="translate(0,688)" style="font-family: 'FK Grotesk Neue'; font-size: 16px; fill: rgb(98, 108, 113); fill-opacity: 1; white-space: pre; opacity: 1;">$0</text></g><g class="ytick"><text text-anchor="end" x="116.8" y="5.6" style="font-family: 'FK Grotesk Neue'; font-size: 16px; fill: rgb(98, 108, 113); fill-opacity: 1; white-space: pre; opacity: 1;" transform="translate(0,557.0899999999999)">$50,000</text></g><g class="ytick"><text text-anchor="end" x="116.8" y="5.6" style="font-family: 'FK Grotesk Neue'; font-size: 16px; fill: rgb(98, 108, 113); fill-opacity: 1; white-space: pre; opacity: 1;" transform="translate(0,426.18)">$100,000</text></g><g class="ytick"><text text-anchor="end" x="116.8" y="5.6" style="font-family: 'FK Grotesk Neue'; font-size: 16px; fill: rgb(98, 108, 113); fill-opacity: 1; white-space: pre; opacity: 1;" transform="translate(0,295.27)">$150,000</text></g><g class="ytick"><text text-anchor="end" x="116.8" y="5.6" style="font-family: 'FK Grotesk Neue'; font-size: 16px; fill: rgb(98, 108, 113); fill-opacity: 1; white-space: pre; opacity: 1;" transform="translate(0,164.36)">$200,000</text></g></g><g class="overaxes-above"/></g></g><g class="polarlayer"/><g class="smithlayer"/><g class="ternarylayer"/><g class="geolayer"/><g class="funnelarealayer"/><g class="pielayer"/><g class="iciclelayer"/><g class="treemaplayer"/><g class="sunburstlayer"/><g class="glimages"/><defs id="topdefs-c57e98"><g class="clips"/><clipPath id="legendc57e98"><rect width="482" height="34" x="0" y="0"/></clipPath></defs><g class="layer-above"><g class="imagelayer"/><g class="shapelayer"/></g><g class="infolayer"><g class="legend" pointer-events="all" transform="translate(382,103.19999999999999)"><rect class="bg" shape-rendering="crispEdges" width="482" height="34" x="0" y="0" style="stroke: rgb(68, 68, 68); stroke-opacity: 1; fill: rgb(243, 243, 238); fill-opacity: 1; stroke-width: 0px;"/><g class="scrollbox" transform="" clip-path="url(#legendc57e98)"><g class="groups"><g class="traces" transform="translate(0,16.9)" style="opacity: 1;"><text class="legendtext" text-anchor="start" x="40" y="6.24" style="font-family: 'FK Grotesk Neue'; font-size: 16px; fill: rgb(19, 52, 59); fill-opacity: 1; white-space: pre;">Annual Savings</text><g class="layers" style="opacity: 1;"><g class="legendfill"/><g class="legendlines"/><g class="legendsymbols"><g class="legendpoints"><path class="legendundefined" d="M6,6H-6V-6H6Z" transform="translate(20,0)" style="stroke-width: 1px; fill: rgb(31, 184, 205); fill-opacity: 1; stroke: rgb(94, 82, 64); stroke-opacity: 0.2;"/></g></g></g><rect class="legendtoggle" x="0" y="-11.9" width="158.296875" height="23.8" style="fill: rgb(0, 0, 0); fill-opacity: 0;"/></g><g class="traces" transform="translate(160.796875,16.9)" style="opacity: 1;"><text class="legendtext" text-anchor="start" x="40" y="6.24" style="font-family: 'FK Grotesk Neue'; font-size: 16px; fill: rgb(19, 52, 59); fill-opacity: 1; white-space: pre;">CO2 Reduction</text><g class="layers" style="opacity: 1;"><g class="legendfill"/><g class="legendlines"/><g class="legendsymbols"><g class="legendpoints"><path class="scatterpts" transform="translate(20,0)" d="M8,0A8,8 0 1,1 0,-8A8,8 0 0,1 8,0Z" style="opacity: 0.8; stroke-width: 2px; fill: rgb(219, 69, 69); fill-opacity: 1; stroke: rgb(255, 255, 255); stroke-opacity: 1;"/></g></g></g><rect class="legendtoggle" x="0" y="-11.9" width="156.875" height="23.8" style="fill: rgb(0, 0, 0); fill-opacity: 0;"/></g><g class="traces" transform="translate(320.171875,16.9)" style="opacity: 1;"><text class="legendtext" text-anchor="start" x="40" y="6.24" style="font-family: 'FK Grotesk Neue'; font-size: 16px; fill: rgb(19, 52, 59); fill-opacity: 1; white-space: pre;">Payback Period</text><g class="layers" style="opacity: 1;"><g class="legendfill"/><g class="legendlines"><path class="js-line" d="M5,0h30" style="fill: none; stroke: rgb(46, 139, 87); stroke-opacity: 1; stroke-width: 3px;"/></g><g class="legendsymbols"><g class="legendpoints"><path class="scatterpts" transform="translate(20,0)" d="M4,0A4,4 0 1,1 0,-4A4,4 0 0,1 4,0Z" style="opacity: 1; stroke-width: 0px; fill: rgb(46, 139, 87); fill-opacity: 1;"/></g></g></g><rect class="legendtoggle" x="0" y="-11.9" width="158.984375" height="23.8" style="fill: rgb(0, 0, 0); fill-opacity: 0;"/></g></g></g><rect class="scrollbar" rx="20" ry="3" width="0" height="0" x="0" y="0" style="fill: rgb(128, 139, 164); fill-opacity: 1;"/></g><g class="g-gtitle"><text class="gtitle" x="600" y="68" text-anchor="middle" dy="-0.3em" style="opacity: 1; font-family: 'FK Grotesk Neue'; font-size: 28px; fill: rgb(19, 52, 59); fill-opacity: 1; font-weight: 1000; white-space: pre;">Hotel Energy Solutions Performance</text></g><g class="g-xtitle"/><g class="g-ytitle"><text class="ytitle" transform="rotate(-90,19.224999999999994,418)" x="19.224999999999994" y="418" text-anchor="middle" style="opacity: 1; font-family: 'FK Grotesk Neue'; font-size: 19px; fill: rgb(19, 52, 59); fill-opacity: 1; font-weight: 600; white-space: pre;">Annual Savings ($)</text></g><g class="annotation" data-index="0" style="opacity: 1;"><g class="annotation-text-g" transform="rotate(0,215.7,200.64)"><g class="cursor-pointer" transform="translate(188,193)"><rect class="bg" x="0.5" y="0.5" width="54" height="15" style="stroke-width: 1px; stroke: rgb(0, 0, 0); stroke-opacity: 0; fill: rgb(0, 0, 0); fill-opacity: 0;"/><text class="annotation-text" text-anchor="middle" x="27.234375" y="11" style="font-family: 'FK Grotesk Neue'; font-size: 9px; fill: rgb(93, 135, 143); fill-opacity: 1; white-space: pre;">64% OpEx↓</text></g></g></g><g class="annotation" data-index="1" style="opacity: 1;"><g class="annotation-text-g" transform="rotate(0,352.3,338.84000000000003)"><g class="cursor-pointer" transform="translate(325,331)"><rect class="bg" x="0.5" y="0.5" width="54" height="15" style="stroke-width: 1px; stroke: rgb(0, 0, 0); stroke-opacity: 0; fill: rgb(0, 0, 0); fill-opacity: 0;"/><text class="annotation-text" text-anchor="middle" x="27.25" y="11" style="font-family: 'FK Grotesk Neue'; font-size: 9px; fill: rgb(93, 135, 143); fill-opacity: 1; white-space: pre;">50% OpEx↓</text></g></g></g><g class="annotation" data-index="2" style="opacity: 1;"><g class="annotation-text-g" transform="rotate(0,488.9,366.69)"><g class="cursor-pointer" transform="translate(462,359)"><rect class="bg" x="0.5" y="0.5" width="53" height="15" style="stroke-width: 1px; stroke: rgb(0, 0, 0); stroke-opacity: 0; fill: rgb(0, 0, 0); fill-opacity: 0;"/><text class="annotation-text" text-anchor="middle" x="27.046875" y="11" style="font-family: 'FK Grotesk Neue'; font-size: 9px; fill: rgb(93, 135, 143); fill-opacity: 1; white-space: pre;">63% OpEx↓</text></g></g></g><g class="annotation" data-index="3" style="opacity: 1;"><g class="annotation-text-g" transform="rotate(0,625.5,461.45)"><g class="cursor-pointer" transform="translate(598,453)"><rect class="bg" x="0.5" y="0.5" width="54" height="15" style="stroke-width: 1px; stroke: rgb(0, 0, 0); stroke-opacity: 0; fill: rgb(0, 0, 0); fill-opacity: 0;"/><text class="annotation-text" text-anchor="middle" x="27.25" y="11" style="font-family: 'FK Grotesk Neue'; font-size: 9px; fill: rgb(93, 135, 143); fill-opacity: 1; white-space: pre;">50% OpEx↓</text></g></g></g><g class="annotation" data-index="4" style="opacity: 1;"><g class="annotation-text-g" transform="rotate(0,762.1,545.4200000000001)"><g class="cursor-pointer" transform="translate(735,537)"><rect class="bg" x="0.5" y="0.5" width="53" height="15" style="stroke-width: 1px; stroke: rgb(0, 0, 0); stroke-opacity: 0; fill: rgb(0, 0, 0); fill-opacity: 0;"/><text class="annotation-text" text-anchor="middle" x="27.046875" y="11" style="font-family: 'FK Grotesk Neue'; font-size: 9px; fill: rgb(93, 135, 143); fill-opacity: 1; white-space: pre;">56% OpEx↓</text></g></g></g><g class="annotation" data-index="5" style="opacity: 1;"><g class="annotation-text-g" transform="rotate(0,898.7,559.27)"><g class="cursor-pointer" transform="translate(872,551)"><rect class="bg" x="0.5" y="0.5" width="53" height="15" style="stroke-width: 1px; stroke: rgb(0, 0, 0); stroke-opacity: 0; fill: rgb(0, 0, 0); fill-opacity: 0;"/><text class="annotation-text" text-anchor="middle" x="26.921875" y="11" style="font-family: 'FK Grotesk Neue'; font-size: 9px; fill: rgb(93, 135, 143); fill-opacity: 1; white-space: pre;">55% OpEx↓</text></g></g></g><g class="annotation" data-index="6" style="opacity: 1;"><g class="annotation-text-g" transform="rotate(0,1035.3,569.29)"><g class="cursor-pointer" transform="translate(1008,561)"><rect class="bg" x="0.5" y="0.5" width="53" height="15" style="stroke-width: 1px; stroke: rgb(0, 0, 0); stroke-opacity: 0; fill: rgb(0, 0, 0); fill-opacity: 0;"/><text class="annotation-text" text-anchor="middle" x="27.046875" y="11" style="font-family: 'FK Grotesk Neue'; font-size: 9px; fill: rgb(93, 135, 143); fill-opacity: 1; white-space: pre;">56% OpEx↓</text></g></g></g></g></svg>